HIERARCHY
ROOT Hips
{
	OFFSET 0.00000 0.00000 0.00000
	CHANNELS 6 Xposition Yposition Zposition Zrotation Yrotation Xrotation 
	JOINT LHipJoint
	{
		OFFSET 0 0 0
		CHANNELS 3 Zrotation Yrotation Xrotation
		JOINT LeftHip
		{
			OFFSET 1.75344 -1.53157 0.77399
			CHANNELS 3 Zrotation Yrotation Xrotation
			JOINT LeftKnee
			{
				OFFSET 2.25415 -6.19323 0.00000
				CHANNELS 3 Zrotation Yrotation Xrotation
				JOINT LeftAnkle
				{
					OFFSET 2.30342 -6.32861 0.00000
					CHANNELS 3 Zrotation Yrotation Xrotation
					JOINT LeftToe
					{
						OFFSET 0.10958 -0.30108 1.49206
						CHANNELS 3 Zrotation Yrotation Xrotation
						End Site
						{
							OFFSET 0.00000 -0.00000 0.77783
						}
					}
				}
			}
		}
	}
	JOINT RHipJoint
	{
		OFFSET 0 0 0
		CHANNELS 3 Zrotation Yrotation Xrotation
		JOINT RightHip
		{
			OFFSET -1.81912 -1.53156 0.77399
			CHANNELS 3 Zrotation Yrotation Xrotation
			JOINT RightKnee
			{
				OFFSET -2.22882 -6.12365 0.00000
				CHANNELS 3 Zrotation Yrotation Xrotation
				JOINT RightAnkle
				{
					OFFSET -2.21943 -6.09785 0.00000
					CHANNELS 3 Zrotation Yrotation Xrotation
					JOINT RightToe
					{
						OFFSET -0.18931 -0.52012 1.59379
						CHANNELS 3 Zrotation Yrotation Xrotation
						End Site
						{
							OFFSET -0.00000 -0.00000 0.84686
						}
					}
				}
			}
		}
	}
	JOINT lowerback
	{
		OFFSET 0 0 0
		CHANNELS 3 Zrotation Yrotation Xrotation
		JOINT Chest
		{
			OFFSET -0.00200 1.66634 -0.14248
			CHANNELS 3 Zrotation Yrotation Xrotation
			JOINT Chest2
			{
				OFFSET -0.00875 1.64542 0.09514
				CHANNELS 3 Zrotation Yrotation Xrotation
				JOINT lowerneck
				{
					OFFSET 0 0 0
					CHANNELS 3 Zrotation Yrotation Xrotation
					JOINT Neck
					{
						OFFSET 0.02257 1.59605 0.00839
						CHANNELS 3 Zrotation Yrotation Xrotation
						JOINT Head
						{
							OFFSET -0.10214 1.57530 -0.23335
							CHANNELS 3 Zrotation Yrotation Xrotation
							End Site
							{
								OFFSET -0.03588 1.60717 -0.08062
							}
						}
					}
				}
				JOINT LeftCollar
				{
					OFFSET 0 0 0
					CHANNELS 3 Zrotation Yrotation Xrotation
					JOINT LeftShoulder
					{
						OFFSET 2.54983 1.10186 0.40078
CHANNELS 3 Zrotation Xrotation Yrotation
						JOINT LeftElbow
						{
OFFSET 0 -4.288400 0.000000
CHANNELS 3 Zrotation Xrotation Yrotation
							JOINT LeftWrist
							{
OFFSET 0 -3.065520 -0.000000
CHANNELS 3 Zrotation Xrotation Yrotation
								JOINT lhand
								{
									OFFSET 0 0 0
CHANNELS 3 Zrotation Xrotation Yrotation
									JOINT LFingers
									{
OFFSET 0 -0.753040 0.000000
CHANNELS 3 Zrotation Xrotation Yrotation
										End Site
										{
OFFSET 0 -0.607120 0.000000
										}
									}
								}
								JOINT LThumb
								{
OFFSET 0 0.000000 0.000000
CHANNELS 3 Zrotation Xrotation Yrotation
									End Site
									{
OFFSET 0 -0.616390 0.616390
									}
								}
							}
						}
					}
				}
				JOINT RightCollar
				{
					OFFSET 0 0 0
					CHANNELS 3 Zrotation Yrotation Xrotation
					JOINT RightShoulder
					{
						OFFSET -2.60909 1.35448 0.21802
CHANNELS 3 Zrotation Xrotation Yrotation
						JOINT RightElbow
						{
OFFSET 0 -4.521720 -0.000000
CHANNELS 3 Zrotation Xrotation Yrotation
							JOINT RightWrist
							{
OFFSET 0 -2.891400 0.000000
CHANNELS 3 Zrotation Xrotation Yrotation
								JOINT rhand
								{
									OFFSET 0 0 0
CHANNELS 3 Zrotation Xrotation Yrotation
									JOINT RFingers
									{
OFFSET 0 -0.680540 0.000000
CHANNELS 3 Zrotation Xrotation Yrotation
										End Site
										{
OFFSET 0 -0.548670 0.000000
										}
									}
								}
								JOINT RThumb
								{
OFFSET 0 0.000000 0.000000
CHANNELS 3 Zrotation Xrotation Yrotation
									End Site
									{
OFFSET 0 -0.557050 0.557050
									}
								}
							}
						}
					}
				}
			}
		}
	}
}
MOTION
Frames: 10
Frame Time: 0.008333333333333333
8.761871 15.660968 -37.252757 -3.359531 -46.677618 7.192488 0.000000 0.000000 0.000000 -20.328885 -6.141927 -13.134109 3.245982 11.082733 32.559610 1.670925 7.990247 -28.426126 0.729363 -5.456567 -15.215581 0.000000 0.000000 0.000000 27.717029 4.007592 -9.998712 -3.042433 -10.763398 31.486129 1.165590 -22.470211 -21.903319 -0.152668 2.514885 -6.931139 2.582898 0.607405 6.454431 1.494460 1.167217 -4.405932 -0.029004 0.462421 -8.250939 6.446834 10.865586 -3.715565 -6.121061 14.531819 4.693523 -2.440580 7.180400 3.205599 0.000000 0.000000 0.000000 21.983779 11.595535 -87.573244 134.733094 -50.891113 97.552243 7.336377 -12.605284 34.498039 0.000000 0.000000 0.000000 -7.125000 0.000000 0.000000 -13.829401 -3.851812 -15.274710 0.000000 0.000000 0.000000 -18.826166 8.814883 87.299882 -128.926020 -53.419502 -92.965729 22.641580 -67.464563 65.701080 0.000000 0.000000 0.000000 7.125000 0.000000 0.000000 -156.233603 8.738015 21.911697
8.882234 15.634624 -37.190984 -2.938407 -42.856479 6.648658 0.000000 0.000000 0.000000 -20.975281 -7.806507 -12.013486 2.930795 10.582040 30.883084 1.604753 7.263440 -27.506249 0.487212 -4.470632 -12.405526 0.000000 0.000000 0.000000 27.349844 3.422123 -10.320737 -3.216110 -11.036859 32.404403 1.109897 -23.110596 -23.910117 -0.041814 1.318871 -3.626549 2.568039 0.587765 5.932891 1.503398 1.115279 -4.156294 0.000789 0.447117 -7.678094 6.095886 9.924002 -4.476703 -6.037581 13.237319 4.583243 -2.404630 6.520815 3.182188 0.000000 0.000000 0.000000 22.031342 11.094044 -88.142039 134.804708 -50.863790 97.609820 11.143025 -17.142961 34.009931 0.000000 0.000000 0.000000 -7.125000 0.000000 0.000000 -11.778017 -3.897130 -12.815582 0.000000 0.000000 0.000000 -18.230586 8.606688 86.756366 -128.380778 -53.627734 -92.527261 20.184287 -65.447742 65.433107 0.000000 0.000000 0.000000 7.125000 0.000000 0.000000 -156.805117 8.138079 21.578385
9.016160 15.588679 -37.118951 -2.745510 -39.699752 6.221807 0.000000 0.000000 0.000000 -21.538937 -9.515765 -10.883775 2.756563 10.290208 29.921678 1.483428 7.428133 -26.752273 1.661740 -8.119913 -23.080581 0.000000 0.000000 0.000000 26.765986 2.298035 -10.642663 -3.380682 -11.287083 33.254431 0.949428 -23.086003 -25.417590 -0.011715 0.697246 -1.916107 2.192230 0.886176 6.059745 1.837544 1.514724 -4.406858 0.510836 0.668643 -8.033692 5.126779 8.829629 -4.899689 -5.434847 11.803983 5.275562 -2.102577 5.797924 3.279870 0.000000 0.000000 0.000000 21.507012 11.821064 -88.177608 134.279397 -51.116685 97.201692 12.924285 -20.807494 36.874468 0.000000 0.000000 0.000000 -7.125000 0.000000 0.000000 -11.106790 -6.979525 -12.599605 0.000000 0.000000 0.000000 -18.320986 9.615746 85.818314 -128.233117 -53.683649 -92.408367 19.281796 -63.701191 64.619216 0.000000 0.000000 0.000000 7.125000 0.000000 0.000000 -156.922014 7.302598 21.861304
9.153699 15.511771 -37.035619 -2.160130 -36.944544 5.379476 0.000000 0.000000 0.000000 -22.441388 -10.945811 -9.207243 2.502921 9.843006 28.470037 1.772025 4.423082 -27.055811 1.203339 -6.951187 -19.574262 0.000000 0.000000 0.000000 25.505209 1.381707 -10.879192 -3.725871 -11.786278 34.980202 0.285209 -20.754650 -27.143452 -0.007936 -0.539318 1.482016 1.678185 1.208769 6.089307 1.901271 1.907983 -4.491434 0.814272 0.891786 -8.158621 4.328099 7.753962 -5.581004 -4.716346 10.378842 6.179721 -1.776093 5.081240 3.532031 0.000000 0.000000 0.000000 20.919324 12.449507 -86.292261 133.831369 -51.328292 96.852396 11.524542 -17.727293 40.893490 0.000000 0.000000 0.000000 -7.125000 0.000000 0.000000 -12.319511 -10.654282 -14.695119 0.000000 0.000000 0.000000 -18.427292 10.051407 85.576315 -128.407674 -53.617851 -92.549036 18.143824 -63.459226 64.126599 0.000000 0.000000 0.000000 7.125000 0.000000 0.000000 -157.153771 6.710368 21.884797
9.274207 15.457716 -36.967250 -1.466670 -34.041853 4.648502 0.000000 0.000000 0.000000 -23.334918 -11.416797 -8.546185 2.338589 9.538312 27.494332 1.871079 2.890632 -27.013528 1.726583 -8.271546 -23.541979 0.000000 0.000000 0.000000 24.199899 0.644570 -10.972150 -4.045583 -12.220767 36.517595 -0.289083 -18.283169 -28.164688 -0.024166 -1.003329 2.758022 1.046170 1.277565 5.791999 1.840233 1.929383 -4.478352 1.107263 0.938263 -7.988454 3.014888 6.705413 -5.818413 -3.506059 8.990192 6.504367 -1.223177 4.401371 3.464478 0.000000 0.000000 0.000000 20.448443 13.171390 -83.249085 134.092081 -51.204943 97.055559 9.816490 -9.986523 42.445396 0.000000 0.000000 0.000000 -7.125000 0.000000 0.000000 -13.374532 -11.899169 -16.233199 0.000000 0.000000 0.000000 -18.528953 9.986194 85.654121 -127.945608 -53.791111 -92.176561 16.914819 -62.482399 63.504537 0.000000 0.000000 0.000000 7.125000 0.000000 0.000000 -157.404497 5.992043 21.937456
9.363224 15.432485 -36.944469 -0.800573 -30.579349 4.225740 0.000000 0.000000 0.000000 -23.891316 -10.646590 -9.472847 2.354188 9.567873 27.588319 1.939993 -1.641307 -25.895626 2.081992 -9.034692 -25.903894 0.000000 0.000000 0.000000 23.311292 0.776786 -10.749604 -4.233491 -12.464865 37.396889 -0.532111 -17.578681 -29.077099 -0.059570 -1.574784 4.332052 0.181104 1.511428 5.653179 1.445797 2.138375 -4.681771 1.151607 1.078409 -8.145322 2.148892 5.335943 -5.957593 -2.165908 7.127225 6.847850 -0.731617 3.505150 3.434569 0.000000 0.000000 0.000000 20.936810 13.384185 -83.250830 134.144496 -51.180789 97.096643 6.496721 -8.991394 45.858862 0.000000 0.000000 0.000000 -7.125000 0.000000 0.000000 -15.364398 -14.655035 -19.355743 0.000000 0.000000 0.000000 -17.771355 10.803221 84.562143 -127.523285 -53.946857 -91.835525 16.054307 -61.126176 62.601810 0.000000 0.000000 0.000000 7.125000 0.000000 0.000000 -157.531592 5.075650 22.214404
9.420610 15.403418 -36.933382 -0.471791 -26.763672 3.333429 0.000000 0.000000 0.000000 -24.087593 -9.207938 -10.053218 2.440511 9.728940 28.103226 1.715605 -3.826991 -23.833715 3.317239 -11.191613 -32.928905 0.000000 0.000000 0.000000 22.970665 0.590986 -9.632916 -4.346106 -12.607306 37.915611 -0.918010 -15.971229 -29.982628 -0.021897 0.938069 -2.578426 -0.622884 1.305724 6.007814 1.419460 1.787039 -4.406946 1.614163 0.951463 -8.073717 0.538082 4.190854 -6.474606 -1.002020 5.645786 7.048071 -0.137825 2.770656 3.466607 0.000000 0.000000 0.000000 20.326815 14.087102 -82.340474 134.269830 -51.121107 97.194224 8.862866 -10.884175 47.719083 0.000000 0.000000 0.000000 -7.125000 0.000000 0.000000 -14.549078 -16.785607 -18.631322 0.000000 0.000000 0.000000 -17.935955 10.966646 84.516114 -127.543631 -53.939356 -91.851914 15.678826 -59.975752 62.152693 0.000000 0.000000 0.000000 7.125000 0.000000 0.000000 -157.583489 4.626638 22.358172
9.475044 15.383554 -36.919227 -0.863421 -23.403396 2.995649 0.000000 0.000000 0.000000 -23.736321 -9.451948 -10.300241 2.571562 9.966859 28.869519 1.610224 -6.807721 -22.749258 3.169317 -10.963494 -32.157736 0.000000 0.000000 0.000000 23.502823 0.969968 -8.469053 -4.342296 -12.602445 37.897951 -1.203490 -14.078263 -30.052230 -0.176071 2.702829 -7.452415 -0.727228 0.930129 6.175906 1.872495 1.307942 -4.511106 2.212338 0.739741 -8.282979 -2.027934 3.385616 -5.847697 0.324704 4.692548 7.080743 0.672746 2.284152 3.244627 0.000000 0.000000 0.000000 18.584820 15.018275 -81.313281 133.704093 -51.387719 96.753016 10.920955 -13.221834 49.996413 0.000000 0.000000 0.000000 -7.125000 0.000000 0.000000 -14.020825 -19.281525 -18.304376 0.000000 0.000000 0.000000 -19.661486 11.100633 86.135006 -128.252870 -53.676241 -92.424304 14.492492 -58.923082 61.088248 0.000000 0.000000 0.000000 7.125000 0.000000 0.000000 -22.253819 -5.319620 -158.147643
9.510308 15.354307 -36.923749 -1.046799 -20.574309 2.510765 0.000000 0.000000 0.000000 -23.765263 -10.407946 -10.127616 2.697120 10.187851 29.587171 1.519831 -8.210987 -22.066487 2.832341 -10.418467 -30.342870 0.000000 0.000000 0.000000 23.948896 1.711506 -7.326328 -4.337909 -12.597019 37.878027 -1.455620 -10.638150 -28.843282 -0.462552 4.356389 -12.082418 -0.290652 1.702225 6.289813 0.679755 2.300741 -4.423886 0.572899 1.161244 -8.227752 -0.997174 1.501103 -5.793108 1.260313 1.996168 7.510592 0.681968 1.011173 3.420582 0.000000 0.000000 0.000000 20.700125 13.891449 -82.737710 134.094011 -51.204575 97.057292 9.667907 -12.527804 51.296384 0.000000 0.000000 0.000000 -7.125000 0.000000 0.000000 -14.800691 -20.303748 -19.525540 0.000000 0.000000 0.000000 -17.789512 11.909522 84.528047 -128.341994 -53.642661 -92.496127 13.170523 -56.975305 59.774699 0.000000 0.000000 0.000000 7.125000 0.000000 0.000000 -22.078499 -6.491358 -158.884879
9.532446 15.338023 -36.941604 -1.252443 -18.016763 2.327278 0.000000 0.000000 0.000000 -23.686939 -11.783561 -9.868159 2.762879 10.300920 29.956756 1.475337 -9.327132 -21.783890 2.576831 -9.976161 -28.899676 0.000000 0.000000 0.000000 24.559975 2.742181 -6.658675 -4.322988 -12.578238 37.809520 -1.602186 -7.899131 -27.899278 -0.879796 5.978881 -16.723423 -0.221763 1.908790 6.647318 0.330940 2.560579 -4.494615 0.117994 1.271962 -8.497669 -1.918681 0.296695 -6.172366 2.287117 0.375568 8.140773 1.116592 0.224740 3.740775 0.000000 0.000000 0.000000 20.975413 13.451463 -83.511295 133.540932 -51.463599 96.625392 10.407005 -13.833480 50.246599 0.000000 0.000000 0.000000 -7.125000 0.000000 0.000000 -14.291422 -19.430828 -18.694551 0.000000 0.000000 0.000000 -17.765993 11.929953 84.952279 -128.785054 -53.473770 -92.852492 11.303857 -55.430450 58.497661 0.000000 0.000000 0.000000 7.125000 0.000000 0.000000 -21.689122 -7.535643 -159.797380
